<?xml version="1.0" standalone="no"?>
<!DOCTYPE svg PUBLIC "-//W3C//DTD SVG 20010904//EN"
 "http://www.w3.org/TR/2001/REC-SVG-20010904/DTD/svg10.dtd">
<svg version="1.0" xmlns="http://www.w3.org/2000/svg"
 width="16.000000pt" height="16.000000pt" viewBox="0 0 16.000000 16.000000"
 preserveAspectRatio="xMidYMid meet">
<metadata>
Created by potrace 1.11, written by Peter Selinger 2001-2013
</metadata>
<g transform="translate(0.000000,16.000000) scale(0.006154,-0.006154)"
fill="#000000" stroke="none">
<path d="M0 2375 c0 -124 4 -225 9 -225 20 0 146 52 169 70 13 11 49 31 78 45
55 26 192 127 252 186 27 26 66 87 90 142 2 4 -132 7 -297 7 l-301 0 0 -225z"/>
<path d="M683 2588 c-6 -7 -29 -51 -53 -98 -23 -47 -46 -89 -51 -94 -5 -6 -9
-20 -9 -31 0 -12 -11 -32 -25 -45 -14 -13 -25 -29 -25 -35 0 -6 -8 -20 -18
-31 -32 -34 -91 -158 -90 -189 1 -47 -21 -151 -42 -197 -21 -46 -26 -98 -10
-98 5 0 21 20 35 44 28 48 63 76 93 76 11 0 25 7 32 15 15 19 87 38 108 30 12
-4 -1 -15 -46 -36 -34 -17 -62 -34 -62 -39 0 -5 -9 -12 -20 -15 -11 -3 -40
-34 -64 -68 -24 -34 -56 -73 -70 -86 -14 -14 -26 -30 -26 -36 0 -6 -16 -26
-35 -45 -19 -19 -35 -39 -35 -46 0 -7 -11 -21 -24 -32 -14 -10 -36 -45 -50
-76 -14 -31 -32 -59 -41 -62 -8 -3 -15 -12 -15 -19 0 -7 -9 -24 -20 -38 -20
-25 -28 -87 -12 -87 15 0 136 135 162 180 39 69 101 131 155 156 28 13 57 24
66 24 29 0 48 33 47 81 -1 73 51 154 134 212 27 17 48 35 48 39 0 4 35 26 78
49 42 23 92 55 110 71 18 15 45 34 60 42 20 10 44 45 81 118 30 57 59 110 66
118 7 8 16 26 20 40 8 26 96 139 139 179 14 14 26 28 26 33 0 4 -137 8 -304 8
-231 0 -306 -3 -313 -12z"/>
<path d="M1431 2593 c-19 -8 -43 -28 -116 -98 -86 -83 -134 -148 -180 -241
-21 -43 -46 -88 -55 -99 -25 -30 -60 -94 -60 -110 0 -7 -7 -21 -16 -30 -13
-12 -19 -13 -30 -4 -12 10 -20 7 -42 -14 -15 -14 -54 -40 -87 -58 -82 -45
-190 -124 -214 -158 -23 -32 -51 -154 -51 -221 0 -48 23 -181 41 -240 6 -19
38 -89 70 -155 58 -119 59 -120 23 -80 -37 40 -71 104 -77 143 -2 11 -8 26
-14 34 -24 31 -62 120 -73 174 -7 33 -19 70 -28 83 l-14 24 -39 -40 c-21 -22
-41 -51 -43 -64 -3 -13 -5 -26 -6 -29 -1 -3 -2 -13 -1 -22 1 -9 -8 -22 -19
-28 -14 -7 -19 -17 -16 -27 5 -11 1 -14 -12 -11 -15 4 -19 0 -18 -16 1 -11 -4
-31 -12 -43 -8 -13 -11 -30 -8 -39 3 -8 2 -23 -3 -33 -6 -11 -6 -22 1 -32 8
-11 9 -10 4 4 -4 12 -2 17 6 14 7 -2 12 -16 10 -31 -2 -18 2 -26 13 -27 8 -1
20 -2 27 -3 18 -2 38 -47 29 -65 -9 -16 -41 -25 -41 -11 0 4 -13 13 -30 19
-37 12 -37 9 -5 -24 14 -14 20 -25 13 -25 -23 0 26 -26 92 -49 122 -43 181
-51 277 -41 152 16 334 60 342 81 2 6 24 36 50 67 25 32 53 66 61 77 14 19 14
19 -3 6 -40 -32 -216 -21 -296 17 -26 13 -41 16 -41 9 0 -16 46 -73 95 -119
48 -46 31 -47 -50 -5 -52 28 -62 38 -75 75 -11 33 -12 47 -3 61 7 11 10 34 7
53 -4 24 -1 38 10 47 23 20 20 35 -16 74 -99 104 -112 164 -58 251 17 26 43
73 60 104 38 76 149 169 180 152 11 -6 20 -14 20 -19 0 -5 -29 -33 -65 -62
-68 -57 -106 -118 -124 -196 -8 -37 -5 -51 20 -105 50 -107 54 -113 84 -127
17 -7 39 -21 50 -31 32 -28 100 -59 113 -51 8 5 8 19 -3 55 -8 27 -15 60 -15
72 0 27 41 119 67 152 18 22 120 61 108 42 -4 -6 -12 -10 -20 -10 -8 0 -32
-17 -53 -37 -47 -46 -82 -132 -74 -183 10 -71 78 -127 142 -118 16 3 30 0 30
-5 0 -24 92 56 130 113 14 22 55 61 90 88 75 56 80 62 113 122 13 25 37 68 52
95 30 54 61 145 100 292 14 50 32 110 41 132 14 36 15 50 4 107 -18 94 -41
118 -121 124 l-63 5 58 38 c31 21 61 35 65 32 15 -8 78 -137 87 -175 l8 -35 7
45 c9 56 -5 169 -34 280 l-22 85 -170 2 c-93 1 -176 -1 -184 -4z m-100 -1010
c13 -16 12 -17 -3 -4 -10 7 -18 15 -18 17 0 8 8 3 21 -13z m81 -50 c17 -15 25
-53 12 -53 -7 0 -29 25 -45 53 -13 23 8 23 33 0z"/>
<path d="M1970 2591 c0 -6 4 -12 9 -16 14 -8 61 -95 61 -112 0 -13 -3 -13 -15
-3 -8 7 -15 19 -15 26 0 8 -5 14 -11 14 -5 0 -8 -4 -5 -8 2 -4 1 -13 -3 -20
-5 -9 -21 4 -50 38 -61 72 -77 66 -40 -16 22 -48 28 -74 24 -95 -4 -17 -11
-26 -17 -23 -13 8 -4 -72 17 -151 8 -34 10 -65 5 -91 -18 -85 -49 -182 -80
-249 -29 -62 -100 -248 -100 -261 0 -7 35 18 75 55 19 17 37 31 41 31 20 0
163 170 202 240 55 99 102 300 104 441 1 66 7 107 19 137 17 38 22 42 53 42
38 0 35 4 61 -95 26 -99 46 -205 41 -213 -2 -4 -9 -46 -16 -92 -12 -93 -42
-165 -94 -227 -18 -21 -42 -54 -52 -74 -30 -55 -128 -138 -300 -252 -159 -105
-225 -151 -408 -282 -206 -148 -344 -278 -375 -353 -7 -18 -17 -32 -22 -32 -4
0 -24 -25 -44 -55 -21 -30 -40 -55 -45 -55 -4 0 -19 -27 -34 -60 -85 -188
-212 -307 -338 -315 -113 -7 -190 28 -304 138 -85 82 -197 179 -221 190 -13 6
-26 7 -30 3 -6 -6 -8 -169 -4 -243 1 -7 8 -13 16 -13 8 0 15 -6 15 -14 0 -8
18 -23 40 -34 22 -10 37 -22 34 -24 -3 -3 12 -16 33 -29 21 -13 39 -26 41 -29
4 -10 298 -3 346 9 49 12 106 7 106 -9 0 -9 38 -5 48 5 9 9 41 -26 36 -40 -3
-7 -1 -16 5 -20 6 -3 11 -1 11 6 0 9 4 9 15 -1 12 -10 15 -7 21 16 7 27 7 27
15 6 9 -24 29 -30 29 -9 0 7 5 5 11 -5 6 -11 16 -15 26 -11 10 4 14 2 10 -4
-8 -12 -69 -32 -202 -65 -71 -17 -118 -22 -220 -22 -158 1 -355 10 -375 17 -8
3 -28 8 -45 12 -16 3 -40 9 -52 12 l-23 5 0 -151 c0 -149 0 -151 23 -156 13
-4 189 -5 392 -3 l370 4 49 27 c27 15 55 27 61 27 6 0 39 14 73 30 34 17 66
30 71 30 14 0 212 85 351 152 140 67 377 204 418 242 13 11 26 20 28 18 3 -2
61 37 129 85 69 48 174 122 235 163 60 41 115 82 122 91 7 8 45 42 83 74 39
32 98 86 133 119 l62 60 0 403 c0 222 -2 403 -4 403 -11 0 -164 -75 -180 -89
-18 -15 -18 -15 -8 4 11 21 28 37 130 125 l64 54 -4 256 c-2 203 -6 261 -18
285 l-15 30 -298 3 c-184 1 -297 -1 -297 -7z m90 -202 c29 -31 41 -57 19 -44
-6 4 -10 1 -8 -6 3 -29 -1 -50 -11 -44 -15 9 -51 98 -46 112 8 19 12 17 46
-18z m30 -130 c0 -6 -4 -7 -10 -4 -5 3 -10 11 -10 16 0 6 5 7 10 4 6 -3 10
-11 10 -16z m20 -54 c0 -5 -5 -3 -10 5 -5 8 -10 20 -10 25 0 6 5 3 10 -5 5 -8
10 -19 10 -25z m-462 -1319 c8 -17 7 -27 -1 -36 -9 -10 -9 -11 1 -6 7 4 12 1
12 -8 0 -9 -9 -16 -20 -16 -14 0 -20 7 -20 21 0 11 -4 17 -10 14 -14 -9 -12
29 2 43 17 17 23 15 36 -12z m-578 -486 c0 -5 -11 -10 -25 -10 -14 0 -25 5
-25 10 0 6 11 10 25 10 14 0 25 -4 25 -10z m-60 -27 c0 -9 -3 -13 -6 -10 -4 3
-16 0 -28 -8 -28 -20 -46 -19 -46 3 0 14 2 15 10 2 6 -10 10 -11 10 -2 0 6 9
12 20 12 11 0 20 5 20 10 0 6 5 10 10 10 6 0 10 -7 10 -17z"/>
<path d="M1950 2561 c0 -5 5 -13 10 -16 6 -3 10 -2 10 4 0 5 -4 13 -10 16 -5
3 -10 2 -10 -4z"/>
<path d="M325 2204 c-27 -14 -68 -42 -90 -62 -52 -49 -151 -112 -177 -112 -7
0 -23 -8 -36 -18 l-22 -17 2 -340 3 -340 37 50 c21 28 52 77 69 110 42 79 90
138 144 175 52 36 66 70 59 150 -4 39 0 78 10 113 8 29 19 98 25 154 5 55 14
111 21 123 19 35 7 39 -45 14z"/>
<path d="M1680 1635 l-65 -132 38 30 c21 17 40 42 43 56 3 14 16 60 29 101 13
41 23 75 22 76 -1 1 -31 -58 -67 -131z"/>
<path d="M922 1290 c-12 -5 -29 -7 -37 -4 -24 10 -18 -31 9 -63 25 -30 82 -53
130 -53 36 0 158 31 151 38 -3 4 -27 15 -53 25 -26 10 -69 28 -97 39 -69 27
-77 29 -103 18z"/>
<path d="M80 1122 c0 -12 6 -37 13 -55 8 -18 12 -37 10 -43 -2 -6 15 -23 37
-39 22 -15 40 -35 40 -45 0 -9 13 -29 30 -43 16 -15 27 -33 24 -40 -6 -17 37
-81 58 -85 9 -2 35 16 57 38 42 43 57 46 75 17 8 -13 8 -20 -3 -26 -25 -16 5
-45 94 -90 85 -43 89 -44 161 -38 123 9 231 73 276 161 11 23 30 52 42 65 l21
24 -24 -13 c-13 -7 -54 -14 -90 -17 -36 -2 -82 -8 -101 -13 -19 -5 -76 -12
-125 -15 -82 -7 -101 -4 -204 24 -62 17 -135 43 -161 56 -47 24 -164 114 -187
145 -45 59 -42 57 -43 32z"/>
<path d="M2562 991 c-11 -7 -10 -10 3 -15 22 -8 22 -8 22 9 0 17 -6 18 -25 6z"/>
<path d="M2460 955 c-17 -21 -9 -27 13 -10 10 7 14 16 9 19 -5 3 -15 -1 -22
-9z"/>
<path d="M2565 921 c-4 -23 -4 -45 -1 -48 3 -4 6 3 6 13 0 11 5 25 11 31 8 8
8 17 1 29 -8 14 -11 10 -17 -25z"/>
<path d="M0 860 c0 -19 3 -21 12 -12 9 9 9 15 0 24 -9 9 -12 7 -12 -12z"/>
<path d="M2534 846 c-3 -9 -10 -13 -15 -10 -5 3 -9 0 -9 -6 0 -7 -7 -10 -15
-6 -17 6 -21 -9 -4 -20 8 -4 8 -9 -1 -18 -8 -8 -13 -7 -19 2 -6 11 -10 10 -15
-3 -5 -14 -9 -15 -22 -4 -12 10 -18 9 -32 -6 -9 -10 -11 -14 -3 -10 10 6 12 2
7 -13 -4 -11 -2 -23 4 -27 5 -3 10 1 10 9 0 23 14 26 39 7 20 -15 22 -20 11
-38 -8 -13 -10 -28 -5 -39 9 -20 12 -29 14 -42 2 -14 37 -7 55 11 10 9 14 22
10 28 -5 8 1 10 19 7 29 -6 42 13 28 41 -5 9 -8 33 -6 54 2 20 -1 38 -6 38 -5
1 -14 2 -21 3 -6 0 -13 7 -16 14 -2 7 2 11 10 10 17 -4 17 24 1 29 -7 3 -16
-2 -19 -11z m46 -76 c0 -5 -2 -10 -4 -10 -3 0 -8 5 -11 10 -3 6 -1 10 4 10 6
0 11 -4 11 -10z m-70 -26 c0 -8 -7 -14 -15 -14 -15 0 -21 21 -9 33 10 9 24 -2
24 -19z m58 -8 c3 -13 -1 -17 -14 -14 -11 2 -20 11 -22 22 -3 13 1 17 14 14
11 -2 20 -11 22 -22z"/>
<path d="M176 792 c-5 -9 20 -32 28 -25 3 4 6 10 6 14 0 10 -28 20 -34 11z"/>
<path d="M222 730 c9 -13 16 -16 23 -9 7 7 5 13 -5 19 -24 15 -31 11 -18 -10z"/>
<path d="M2210 710 c-14 -10 -22 -21 -19 -24 2 -3 18 6 34 19 35 29 22 33 -15
5z"/>
<path d="M2400 692 c0 -5 -18 -17 -40 -28 -22 -10 -40 -24 -40 -30 0 -16 34
-44 54 -44 17 0 36 -37 36 -71 0 -26 -22 -20 -35 9 -10 22 -25 30 -25 12 0 -5
-7 -7 -15 -4 -8 4 -12 10 -9 15 3 5 0 17 -6 26 -9 14 -10 8 -6 -31 5 -40 3
-47 -9 -42 -9 3 -15 0 -15 -9 0 -8 -7 -15 -15 -15 -8 0 -15 5 -15 10 0 18 -29
10 -35 -10 -7 -21 -20 -26 -30 -10 -7 11 -37 1 -48 -17 -5 -7 -12 -11 -18 -8
-5 4 -12 -1 -15 -10 -9 -23 -49 -12 -80 22 -28 30 -29 34 -11 52 6 8 -1 5 -18
-5 -16 -11 -26 -13 -22 -6 5 6 4 12 -1 12 -4 0 -16 -16 -25 -35 -17 -35 -17
-36 7 -45 14 -5 29 -17 35 -27 9 -17 10 -17 16 0 6 14 10 15 21 6 21 -17 17
-39 -11 -65 -28 -26 -32 -39 -10 -30 10 4 15 -1 15 -14 0 -15 -7 -20 -24 -20
-31 0 -78 18 -88 33 -10 16 -43 -21 -44 -50 -1 -26 14 -31 22 -9 3 8 12 17 19
20 21 7 8 -17 -16 -32 -21 -13 -43 -7 -33 9 3 5 0 16 -6 24 -10 12 -10 19 1
32 12 16 12 16 -7 0 -21 -17 -22 -17 -53 8 -17 15 -31 22 -31 16 0 -6 6 -11
13 -11 8 0 8 -3 -2 -9 -8 -5 -11 -16 -7 -26 3 -9 3 -22 -1 -28 -8 -12 -9 -17
-12 -37 0 -6 -7 -9 -13 -8 -14 3 -14 -22 -3 -122 4 -30 7 -63 7 -72 -1 -17 26
-18 424 -18 l424 0 -1 303 c-1 166 -4 313 -8 327 -7 24 -7 24 -14 -9 -6 -29
-10 -33 -32 -29 -14 3 -28 1 -31 -3 -10 -17 -53 -9 -80 16 -15 14 -24 28 -21
31 9 9 37 -22 29 -31 -4 -4 0 -6 8 -3 21 7 19 25 -10 64 -24 33 -40 43 -40 26z
m11 -46 c-10 -11 -10 -20 0 -38 l12 -23 -27 24 c-16 16 -26 20 -26 11 0 -16
-15 -3 -15 13 0 14 21 25 49 26 15 1 16 -2 7 -13z m-21 -160 c0 -21 -20 -30
-33 -17 -9 9 -8 14 3 21 21 14 30 12 30 -4z m-381 -25 c9 -6 10 -14 4 -25 -8
-14 -12 -14 -27 -3 -11 8 -16 19 -12 25 9 14 16 15 35 3z m530 -34 c13 -16 5
-27 -21 -27 -18 0 -25 20 -11 33 10 10 19 8 32 -6z m-214 -16 c7 -12 -12 -24
-25 -16 -11 7 -4 25 10 25 5 0 11 -4 15 -9z m-115 -21 c0 -5 -7 -10 -15 -10
-8 0 -15 5 -15 10 0 6 7 10 15 10 8 0 15 -4 15 -10z m-260 -163 c0 -5 -4 -5
-10 -2 -5 3 -10 14 -10 23 0 15 2 15 10 2 5 -8 10 -19 10 -23z m-15 -33 c6 0
16 -2 23 -2 6 -1 12 -7 12 -13 0 -5 -4 -8 -9 -5 -5 3 -11 -3 -14 -14 -7 -28
-30 -25 -44 6 -14 29 -8 48 10 37 7 -4 17 -8 22 -9z m-92 -9 c-3 -9 -8 -14
-10 -11 -3 3 -2 9 2 15 9 16 15 13 8 -4z m-33 -60 c0 -35 -19 -51 -21 -17 0 9
-2 25 -4 35 -2 9 3 17 11 17 9 0 14 -12 14 -35z"/>
<path d="M2197 574 c-3 -3 -3 -12 0 -20 3 -8 0 -21 -7 -29 -22 -27 -3 -27 24
-1 14 15 23 33 20 41 -6 15 -26 20 -37 9z"/>
<path d="M2095 500 c3 -5 8 -10 11 -10 2 0 4 5 4 10 0 6 -5 10 -11 10 -5 0 -7
-4 -4 -10z"/>
<path d="M1908 483 c7 -3 16 -2 19 1 4 3 -2 6 -13 5 -11 0 -14 -3 -6 -6z"/>
<path d="M1925 410 c-7 -23 2 -60 15 -60 11 0 17 29 12 58 -5 27 -19 29 -27 2z"/>
<path d="M1780 381 c-13 -25 -13 -28 4 -34 10 -4 13 -1 10 7 -3 7 2 21 11 30
14 14 15 16 1 16 -8 0 -20 -9 -26 -19z"/>
<path d="M1465 270 c3 -5 8 -10 11 -10 2 0 4 5 4 10 0 6 -5 10 -11 10 -5 0 -7
-4 -4 -10z"/>
<path d="M1660 270 c0 -6 -4 -9 -9 -5 -5 3 -12 1 -16 -5 -3 -5 -14 -10 -25
-10 -20 0 -32 -22 -24 -45 10 -26 33 -18 28 10 -2 14 0 25 6 25 5 0 10 -4 10
-10 0 -18 17 -11 34 14 10 15 12 27 6 31 -6 3 -10 1 -10 -5z"/>
<path d="M1550 205 c0 -8 5 -15 10 -15 6 0 10 7 10 15 0 8 -4 15 -10 15 -5 0
-10 -7 -10 -15z"/>
<path d="M1403 174 c3 -4 0 -16 -8 -28 -16 -22 -20 -66 -6 -66 5 0 14 7 21 15
9 10 9 15 1 15 -6 0 -11 -5 -11 -12 0 -6 -3 -9 -6 -5 -3 3 1 20 10 38 19 38
20 49 4 49 -6 0 -8 -3 -5 -6z"/>
<path d="M1530 153 c-18 -7 -54 -43 -43 -43 5 0 18 7 30 15 12 9 26 15 30 14
4 -1 15 -1 23 0 13 1 13 2 0 11 -17 11 -18 11 -40 3z"/>
<path d="M1657 100 c-9 -22 -17 -44 -17 -49 0 -25 -25 -20 -51 9 -38 41 -47
34 -17 -13 18 -28 30 -36 54 -37 24 0 34 6 43 26 6 14 9 30 5 35 -3 6 -1 15 4
22 5 7 7 20 3 30 -5 13 -10 8 -24 -23z"/>
<path d="M1702 121 c2 -7 7 -12 11 -12 12 1 9 15 -3 20 -7 2 -11 -2 -8 -8z"/>
<path d="M1520 41 c0 -6 5 -13 10 -16 6 -3 10 1 10 9 0 9 -4 16 -10 16 -5 0
-10 -4 -10 -9z"/>
</g>
</svg>
